{
	"asset":{
		"copyright":"Copyright (C) 2021 Logan Bier. All rights reserved.",
		"generator":"Khronos glTF Blender I/O v4.2.69",
		"version":"2.0"
	},
	"extensionsUsed":[
		"KHR_materials_specular",
		"KHR_materials_ior"
	],
	"scene":0,
	"scenes":[
		{
			"name":"Scene",
			"nodes":[
				0
			]
		}
	],
	"nodes":[
		{
			"mesh":0,
			"name":"skybox"
		}
	],
	"materials":[
		{
			"extensions":{
				"KHR_materials_specular":{
					"specularFactor":0
				},
				"KHR_materials_ior":{
					"ior":1.4500000476837158
				}
			},
			"name":"Material.002",
			"pbrMetallicRoughness":{
				"baseColorTexture":{
					"index":0
				},
				"metallicFactor":0
			}
		}
	],
	"meshes":[
		{
			"name":"Sphere.001",
			"primitives":[
				{
					"attributes":{
						"POSITION":0,
						"NORMAL":1,
						"TEXCOORD_0":2
					},
					"indices":3,
					"material":0
				}
			]
		}
	],
	"textures":[
		{
			"sampler":0,
			"source":0
		}
	],
	"images":[
		{
			"mimeType":"image/png",
			"name":"Untitled-1",
			"uri":"Untitled-1.png"
		}
	],
	"accessors":[
		{
			"bufferView":0,
			"componentType":5126,
			"count":23146,
			"max":[
				1999.9945068359375,
				2000,
				1999.98974609375
			],
			"min":[
				-1999.99462890625,
				-2000,
				-1999.9986572265625
			],
			"type":"VEC3"
		},
		{
			"bufferView":1,
			"componentType":5126,
			"count":23146,
			"type":"VEC3"
		},
		{
			"bufferView":2,
			"componentType":5126,
			"count":23146,
			"type":"VEC2"
		},
		{
			"bufferView":3,
			"componentType":5123,
			"count":96768,
			"type":"SCALAR"
		}
	],
	"bufferViews":[
		{
			"buffer":0,
			"byteLength":277752,
			"byteOffset":0,
			"target":34962
		},
		{
			"buffer":0,
			"byteLength":277752,
			"byteOffset":277752,
			"target":34962
		},
		{
			"buffer":0,
			"byteLength":185168,
			"byteOffset":555504,
			"target":34962
		},
		{
			"buffer":0,
			"byteLength":193536,
			"byteOffset":740672,
			"target":34963
		}
	],
	"samplers":[
		{
			"magFilter":9729,
			"minFilter":9987
		}
	],
	"buffers":[
		{
			"byteLength":934208,
			"uri":"space.bin"
		}
	]
}
